<mxfile host="app.diagrams.net" modified="2023-01-17T23:24:50.916Z" agent="5.0 (Windows NT 10.0; Win64; x64) AppleWebKit/537.36 (KHTML, like Gecko) Chrome/108.0.0.0 Safari/537.36" etag="Rc2u2RGWemR0KqvExtnZ" version="20.8.5" type="github">
  <diagram id="SmE7I_mrgjN-7mbne580" name="Page-1">
    <mxGraphModel dx="1912" dy="1168" grid="1" gridSize="10" guides="1" tooltips="1" connect="1" arrows="1" fold="1" page="1" pageScale="1" pageWidth="827" pageHeight="1169" math="0" shadow="0">
      <root>
        <mxCell id="0" />
        <mxCell id="1" parent="0" />
        <mxCell id="obWB0MNBc-JwBnrpygli-23" style="edgeStyle=orthogonalEdgeStyle;rounded=0;orthogonalLoop=1;jettySize=auto;html=1;exitX=0.5;exitY=1;exitDx=0;exitDy=0;entryX=0.5;entryY=0;entryDx=0;entryDy=0;" edge="1" parent="1" source="XfR2ThbSgRy0pjTAjIIs-1" target="XfR2ThbSgRy0pjTAjIIs-6">
          <mxGeometry relative="1" as="geometry" />
        </mxCell>
        <mxCell id="XfR2ThbSgRy0pjTAjIIs-1" value="Start" style="ellipse;whiteSpace=wrap;html=1;" parent="1" vertex="1">
          <mxGeometry x="210" y="230" width="120" height="30" as="geometry" />
        </mxCell>
        <mxCell id="obWB0MNBc-JwBnrpygli-24" style="edgeStyle=orthogonalEdgeStyle;rounded=0;orthogonalLoop=1;jettySize=auto;html=1;exitX=0.5;exitY=1;exitDx=0;exitDy=0;entryX=0.5;entryY=0;entryDx=0;entryDy=0;" edge="1" parent="1" source="XfR2ThbSgRy0pjTAjIIs-6" target="XfR2ThbSgRy0pjTAjIIs-30">
          <mxGeometry relative="1" as="geometry" />
        </mxCell>
        <mxCell id="XfR2ThbSgRy0pjTAjIIs-6" value="Conditions for the Financial agreement" style="whiteSpace=wrap;html=1;rounded=0;" parent="1" vertex="1">
          <mxGeometry x="210" y="278" width="120" height="60" as="geometry" />
        </mxCell>
        <mxCell id="XfR2ThbSgRy0pjTAjIIs-11" value="NO" style="edgeStyle=orthogonalEdgeStyle;rounded=0;orthogonalLoop=1;jettySize=auto;html=1;" parent="1" source="XfR2ThbSgRy0pjTAjIIs-8" target="XfR2ThbSgRy0pjTAjIIs-10" edge="1">
          <mxGeometry relative="1" as="geometry">
            <Array as="points">
              <mxPoint x="440" y="490" />
            </Array>
          </mxGeometry>
        </mxCell>
        <mxCell id="obWB0MNBc-JwBnrpygli-13" value="YES" style="edgeStyle=orthogonalEdgeStyle;rounded=0;orthogonalLoop=1;jettySize=auto;html=1;exitX=0;exitY=0.5;exitDx=0;exitDy=0;" edge="1" parent="1" source="XfR2ThbSgRy0pjTAjIIs-8" target="obWB0MNBc-JwBnrpygli-1">
          <mxGeometry relative="1" as="geometry" />
        </mxCell>
        <mxCell id="XfR2ThbSgRy0pjTAjIIs-8" value="Conditions approved by the buyer?" style="rhombus;whiteSpace=wrap;html=1;rounded=0;" parent="1" vertex="1">
          <mxGeometry x="215" y="450" width="110" height="80" as="geometry" />
        </mxCell>
        <mxCell id="XfR2ThbSgRy0pjTAjIIs-13" value="" style="edgeStyle=orthogonalEdgeStyle;rounded=0;orthogonalLoop=1;jettySize=auto;html=1;entryX=0.5;entryY=0;entryDx=0;entryDy=0;" parent="1" source="XfR2ThbSgRy0pjTAjIIs-10" target="XfR2ThbSgRy0pjTAjIIs-33" edge="1">
          <mxGeometry relative="1" as="geometry" />
        </mxCell>
        <mxCell id="XfR2ThbSgRy0pjTAjIIs-10" value="Buyer creates proposal" style="whiteSpace=wrap;html=1;rounded=0;" parent="1" vertex="1">
          <mxGeometry x="380" y="508" width="120" height="60" as="geometry" />
        </mxCell>
        <mxCell id="obWB0MNBc-JwBnrpygli-2" value="YES" style="edgeStyle=orthogonalEdgeStyle;rounded=0;orthogonalLoop=1;jettySize=auto;html=1;exitX=0;exitY=0.5;exitDx=0;exitDy=0;entryX=0.5;entryY=0;entryDx=0;entryDy=0;" edge="1" parent="1" source="XfR2ThbSgRy0pjTAjIIs-12" target="obWB0MNBc-JwBnrpygli-14">
          <mxGeometry relative="1" as="geometry">
            <mxPoint x="270" y="710" as="targetPoint" />
          </mxGeometry>
        </mxCell>
        <mxCell id="obWB0MNBc-JwBnrpygli-4" value="NO" style="edgeStyle=orthogonalEdgeStyle;rounded=0;orthogonalLoop=1;jettySize=auto;html=1;" edge="1" parent="1" source="XfR2ThbSgRy0pjTAjIIs-12">
          <mxGeometry relative="1" as="geometry">
            <mxPoint x="560" y="770" as="targetPoint" />
          </mxGeometry>
        </mxCell>
        <mxCell id="XfR2ThbSgRy0pjTAjIIs-12" value="Approved by Financier" style="rhombus;whiteSpace=wrap;html=1;rounded=0;" parent="1" vertex="1">
          <mxGeometry x="400" y="670" width="80" height="80" as="geometry" />
        </mxCell>
        <mxCell id="obWB0MNBc-JwBnrpygli-21" value="YES" style="edgeStyle=orthogonalEdgeStyle;rounded=0;orthogonalLoop=1;jettySize=auto;html=1;exitX=0;exitY=0.5;exitDx=0;exitDy=0;entryX=0.5;entryY=0;entryDx=0;entryDy=0;" edge="1" parent="1" source="XfR2ThbSgRy0pjTAjIIs-18" target="obWB0MNBc-JwBnrpygli-8">
          <mxGeometry relative="1" as="geometry" />
        </mxCell>
        <mxCell id="obWB0MNBc-JwBnrpygli-22" value="NO" style="edgeStyle=orthogonalEdgeStyle;rounded=0;orthogonalLoop=1;jettySize=auto;html=1;exitX=1;exitY=0.5;exitDx=0;exitDy=0;" edge="1" parent="1" source="XfR2ThbSgRy0pjTAjIIs-18">
          <mxGeometry relative="1" as="geometry">
            <mxPoint x="280" y="890" as="targetPoint" />
          </mxGeometry>
        </mxCell>
        <mxCell id="XfR2ThbSgRy0pjTAjIIs-18" value="Trade succesful?" style="rhombus;whiteSpace=wrap;html=1;rounded=0;" parent="1" vertex="1">
          <mxGeometry x="230" y="910" width="80" height="80" as="geometry" />
        </mxCell>
        <mxCell id="obWB0MNBc-JwBnrpygli-25" style="edgeStyle=orthogonalEdgeStyle;rounded=0;orthogonalLoop=1;jettySize=auto;html=1;exitX=0.5;exitY=1;exitDx=0;exitDy=0;entryX=0.5;entryY=0;entryDx=0;entryDy=0;" edge="1" parent="1" source="XfR2ThbSgRy0pjTAjIIs-30" target="XfR2ThbSgRy0pjTAjIIs-8">
          <mxGeometry relative="1" as="geometry" />
        </mxCell>
        <mxCell id="XfR2ThbSgRy0pjTAjIIs-30" value="Interest rate/payback date" style="shape=parallelogram;perimeter=parallelogramPerimeter;whiteSpace=wrap;html=1;fixedSize=1;" parent="1" vertex="1">
          <mxGeometry x="200" y="360" width="140" height="60" as="geometry" />
        </mxCell>
        <mxCell id="XfR2ThbSgRy0pjTAjIIs-34" style="edgeStyle=orthogonalEdgeStyle;rounded=0;orthogonalLoop=1;jettySize=auto;html=1;exitX=0.5;exitY=1;exitDx=0;exitDy=0;entryX=0.5;entryY=0;entryDx=0;entryDy=0;" parent="1" source="XfR2ThbSgRy0pjTAjIIs-33" target="XfR2ThbSgRy0pjTAjIIs-12" edge="1">
          <mxGeometry relative="1" as="geometry" />
        </mxCell>
        <mxCell id="XfR2ThbSgRy0pjTAjIIs-33" value="new Interest rate/payback date" style="shape=parallelogram;perimeter=parallelogramPerimeter;whiteSpace=wrap;html=1;fixedSize=1;" parent="1" vertex="1">
          <mxGeometry x="370" y="585" width="140" height="60" as="geometry" />
        </mxCell>
        <mxCell id="obWB0MNBc-JwBnrpygli-6" value="END" style="ellipse;whiteSpace=wrap;html=1;" vertex="1" parent="1">
          <mxGeometry x="205" y="1130" width="120" height="30" as="geometry" />
        </mxCell>
        <mxCell id="obWB0MNBc-JwBnrpygli-9" style="edgeStyle=orthogonalEdgeStyle;rounded=0;orthogonalLoop=1;jettySize=auto;html=1;exitX=0.5;exitY=1;exitDx=0;exitDy=0;" edge="1" parent="1" source="obWB0MNBc-JwBnrpygli-8" target="obWB0MNBc-JwBnrpygli-6">
          <mxGeometry relative="1" as="geometry">
            <Array as="points">
              <mxPoint x="170" y="1090" />
              <mxPoint x="265" y="1090" />
            </Array>
          </mxGeometry>
        </mxCell>
        <mxCell id="obWB0MNBc-JwBnrpygli-8" value="Amount unlocked" style="shape=parallelogram;perimeter=parallelogramPerimeter;whiteSpace=wrap;html=1;fixedSize=1;" vertex="1" parent="1">
          <mxGeometry x="110" y="1000" width="120" height="60" as="geometry" />
        </mxCell>
        <mxCell id="obWB0MNBc-JwBnrpygli-11" style="edgeStyle=orthogonalEdgeStyle;rounded=0;orthogonalLoop=1;jettySize=auto;html=1;exitX=0.5;exitY=1;exitDx=0;exitDy=0;" edge="1" parent="1" source="obWB0MNBc-JwBnrpygli-1" target="XfR2ThbSgRy0pjTAjIIs-18">
          <mxGeometry relative="1" as="geometry">
            <Array as="points">
              <mxPoint x="170" y="860" />
              <mxPoint x="270" y="860" />
            </Array>
          </mxGeometry>
        </mxCell>
        <mxCell id="obWB0MNBc-JwBnrpygli-1" value="Final amount for trade" style="shape=parallelogram;perimeter=parallelogramPerimeter;whiteSpace=wrap;html=1;fixedSize=1;" vertex="1" parent="1">
          <mxGeometry x="100" y="585" width="140" height="60" as="geometry" />
        </mxCell>
        <mxCell id="obWB0MNBc-JwBnrpygli-19" style="edgeStyle=orthogonalEdgeStyle;rounded=0;orthogonalLoop=1;jettySize=auto;html=1;exitX=0.5;exitY=1;exitDx=0;exitDy=0;" edge="1" parent="1" source="obWB0MNBc-JwBnrpygli-14" target="XfR2ThbSgRy0pjTAjIIs-18">
          <mxGeometry relative="1" as="geometry">
            <Array as="points">
              <mxPoint x="340" y="860" />
              <mxPoint x="270" y="860" />
            </Array>
          </mxGeometry>
        </mxCell>
        <mxCell id="obWB0MNBc-JwBnrpygli-14" value="Final amount for trade" style="shape=parallelogram;perimeter=parallelogramPerimeter;whiteSpace=wrap;html=1;fixedSize=1;" vertex="1" parent="1">
          <mxGeometry x="270" y="770" width="140" height="50" as="geometry" />
        </mxCell>
        <mxCell id="obWB0MNBc-JwBnrpygli-17" style="edgeStyle=orthogonalEdgeStyle;rounded=0;orthogonalLoop=1;jettySize=auto;html=1;exitX=0.5;exitY=1;exitDx=0;exitDy=0;entryX=0.5;entryY=0;entryDx=0;entryDy=0;" edge="1" parent="1">
          <mxGeometry relative="1" as="geometry">
            <mxPoint x="265" y="1131.0000000000002" as="targetPoint" />
            <mxPoint x="570" y="831" as="sourcePoint" />
            <Array as="points">
              <mxPoint x="570" y="1090" />
              <mxPoint x="265" y="1090" />
            </Array>
          </mxGeometry>
        </mxCell>
        <mxCell id="obWB0MNBc-JwBnrpygli-15" value="&#xa;&lt;span style=&quot;color: rgb(0, 0, 0); font-family: Helvetica; font-size: 12px; font-style: normal; font-variant-ligatures: normal; font-variant-caps: normal; font-weight: 400; letter-spacing: normal; orphans: 2; text-align: center; text-indent: 0px; text-transform: none; widows: 2; word-spacing: 0px; -webkit-text-stroke-width: 0px; background-color: rgb(251, 251, 251); text-decoration-thickness: initial; text-decoration-style: initial; text-decoration-color: initial; float: none; display: inline !important;&quot;&gt;Trade stopped. No consent on prices&lt;/span&gt;&#xa;&#xa;" style="shape=parallelogram;perimeter=parallelogramPerimeter;whiteSpace=wrap;html=1;fixedSize=1;" vertex="1" parent="1">
          <mxGeometry x="500" y="770" width="140" height="60" as="geometry" />
        </mxCell>
      </root>
    </mxGraphModel>
  </diagram>
</mxfile>
